<?xml version="1.0" standalone="no"?><!DOCTYPE svg PUBLIC "-//W3C//DTD SVG 1.1//EN" "http://www.w3.org/Graphics/SVG/1.1/DTD/svg11.dtd"><svg t="1743937210741" class="icon" viewBox="0 0 1024 1024" version="1.1" xmlns="http://www.w3.org/2000/svg" p-id="1757" xmlns:xlink="http://www.w3.org/1999/xlink" width="200" height="200"><path d="M179.413333 356.053333h595.413334a49.706667 49.706667 0 0 0 51.626666-49.066666v-98.133334a49.92 49.92 0 0 0-51.626666-49.066666H179.413333A49.706667 49.706667 0 0 0 128 208.853333v98.133334a49.493333 49.493333 0 0 0 51.413333 49.066666z m595.413334-147.2v98.133334H179.413333v-98.133334zM179.413333 613.76h181.12a24.746667 24.746667 0 0 0 24.96-24.533333 27.306667 27.306667 0 0 0-25.813333-24.533334H179.413333v-98.133333h595.413334v27.52a25.813333 25.813333 0 0 0 51.626666 0v-27.52a49.92 49.92 0 0 0-51.626666-49.066667H179.413333A49.706667 49.706667 0 0 0 128 466.56v98.133333a49.706667 49.706667 0 0 0 51.413333 49.066667zM272.853333 822.4H179.413333V725.333333h93.226667a24.533333 24.533333 0 1 0 0-49.066666H179.413333A49.493333 49.493333 0 0 0 128 725.333333v98.133334a49.706667 49.706667 0 0 0 51.413333 49.066666h93.44a24.533333 24.533333 0 1 0 0-49.066666z" fill="#0171F1" p-id="1758"></path><path d="M256 490.666667a27.306667 27.306667 0 0 0-25.813333 24.533333A27.306667 27.306667 0 0 0 256 540.16h51.413333a24.533333 24.533333 0 1 0 0-49.066667z" fill="#0171F1" p-id="1759"></path><path d="M897.066667 739.626667a152.32 152.32 0 0 0-164.053334-138.026667 155.306667 155.306667 0 0 0-144.853333-98.133333 152.96 152.96 0 0 0-154.453333 147.2v2.986666a123.093333 123.093333 0 0 0-103.04 119.68 126.293333 126.293333 0 0 0 128 122.666667h293.76a149.333333 149.333333 0 0 0 144.64-156.373333z m-148.053334 106.666666H446.506667a74.026667 74.026667 0 0 1-64-73.6 76.8 76.8 0 0 1 77.44-73.6 24.106667 24.106667 0 0 0 22.4-15.36 37.76 37.76 0 0 0 3.2-18.346666 98.133333 98.133333 0 0 1 83.626666-113.706667 102.186667 102.186667 0 0 1 119.253334 79.786667 23.68 23.68 0 0 0 21.333333 18.56h9.813333c6.4 0 12.8-3.2 19.2-3.2a102.4 102.4 0 0 1 109.44 92.16 104.32 104.32 0 0 1-99.2 107.946666z" fill="#55ABE5" p-id="1760"></path></svg>